#!OML:ASF H:\Terrain\Patient Classification 1\Animal2\Wednesday\Animal2.ASF
:FULLY-SPECIFIED
:DEGREES
955
root 8.10316 15.9905 -23.5912 1.04824 -27.5919 -7.45119
lowerback 8.56058 -2.59098 2.00054
upperback -0.523165 -2.98762 5.97079
thorax -5.1384 -1.47257 5.53249
lowerneck 12.348 9.20311 15.4856
upperneck -25.447 9.82949 -28.1683
head -7.07433 6.26054 -13.6124
rclavicle 7.68675e-014 -9.54166e-015
rhumerus -34.2716 1.2666 -80.8821
rradius 125.7
rwrist -14.0492
rhand -28.0373 11.6905
rfingers 7.12502
rthumb -1.42192 -18.2845
lclavicle 7.68675e-014 -9.54166e-015
lhumerus -33.6286 9.44384 66.0032
lradius 131.139
lwrist 57.3256
lhand -20.7364 28.2696
lfingers 7.12502
lthumb 5.62888 58.1749
rfemur -6.12031 4.49251 15.6521
rtibia 51.9634
rfoot -27.9073 -8.41214
rtoes -29.5141
lfemur -28.8286 2.20253 3.99248
ltibia 57.7707
lfoot -23.4501 -9.43482
ltoes -27.499
956
root 8.04866 15.8801 -23.6618 0.767147 -27.3143 -7.32007
lowerback 8.83511 -2.57913 2.10105
upperback -0.30333 -2.96023 5.92161
thorax -5.0716 -1.46413 5.42606
lowerneck 12.6121 9.55677 15.3831
upperneck -26.049 10.2348 -28.3541
head -7.20065 6.50406 -13.7489
rclavicle -2.81156e-014 5.32743e-014
rhumerus -34.7463 1.38399 -81.5216
rradius 125.369
rwrist -14.6687
rhand -27.5905 9.88431
rfingers 7.12502
rthumb -0.990431 -20.0931
lclavicle -2.81156e-014 5.32743e-014
lhumerus -34.5563 9.44258 67.3929
lradius 130.802
lwrist 57.3055
lhand -21.335 29.6981
lfingers 7.12502
lthumb 5.05091 59.6179
rfemur -6.57237 4.00132 15.8283
rtibia 53.4573
rfoot -29.5273 -9.20367
rtoes -29.2774
lfemur -29.2393 1.97231 4.12861
ltibia 58.6176
lfoot -24.7989 -9.34461
ltoes -25.7905
957
root 7.99652 15.7663 -23.73 0.538485 -27.0741 -7.31246
lowerback 9.06156 -2.56649 2.40704
upperback -0.082161 -2.91457 5.82125
thorax -4.99032 -1.45196 5.14322
lowerneck 12.6944 9.70659 15.8591
upperneck -26.4324 10.4139 -28.9572
head -7.19552 6.61931 -14.1259
rclavicle -2.03506e-014 -2.14687e-014
rhumerus -35.2387 1.53115 -82.2321
rradius 124.971
rwrist -14.9135
rhand -27.0313 8.15162
rfingers 7.12502
rthumb -0.450335 -21.8277
lclavicle -2.03506e-014 -2.14687e-014
lhumerus -35.4124 9.36567 68.8026
lradius 130.463
lwrist 57.4144
lhand -22.2062 31.2748
lfingers 7.12502
lthumb 4.2097 61.213
rfemur -6.91436 3.67152 16.0838
rtibia 54.7501
rfoot -31.1862 -9.51984
rtoes -28.2186
lfemur -29.6441 1.7053 4.4097
ltibia 59.4302
lfoot -25.927 -8.72565
ltoes -27.3056
958
root 7.94482 15.6546 -23.793 0.204041 -26.8384 -7.17739
lowerback 9.39436 -2.62288 2.54924
upperback -0.00534636 -2.96111 5.74443
thorax -5.1048 -1.47797 5.00486
lowerneck 13.381 9.7675 16.3393
upperneck -27.0274 10.4878 -29.679
head -7.39288 6.72271 -14.6649
rclavicle 1.24986e-014 2.06736e-014
rhumerus -35.9023 2.12053 -82.8696
rradius 124.591
rwrist -15.4018
rhand -26.9275 6.52748
rfingers 7.12502
rthumb -0.35004 -23.452
lclavicle 1.24986e-014 2.06736e-014
lhumerus -36.5868 9.54794 70.1727
lradius 130.125
lwrist 57.6604
lhand -23.332 32.8494
lfingers 7.12502
lthumb 3.12249 62.8063
rfemur -7.01406 3.38413 16.1647
rtibia 55.7336
rfoot -32.7212 -10.1344
rtoes -28.2044
lfemur -29.9615 1.27048 4.61222
ltibia 60.1922
lfoot -26.8327 -8.08423
ltoes -29.0765
959
root 7.89396 15.5603 -23.8539 -0.0131167 -26.6948 -6.99446
lowerback 9.63138 -2.62177 2.64078
upperback -0.0302529 -2.9357 5.65504
thorax -5.27534 -1.46612 4.87122
lowerneck 14.1468 10.0249 16.4699
upperneck -27.4017 10.9081 -29.9315
head -7.51233 6.98597 -14.9048
rclavicle 6.44808e-014 -3.89618e-014
rhumerus -36.5555 2.66557 -83.4322
rradius 124.163
rwrist -16.2314
rhand -27.0395 5.42162
rfingers 7.12502
rthumb -0.458233 -24.5576
lclavicle 6.44808e-014 -3.89618e-014
lhumerus -37.7851 9.62971 71.5409
lradius 129.673
lwrist 58.1442
lhand -24.9632 35.0682
lfingers 7.12502
lthumb 1.54715 65.0424
rfemur -7.14738 3.26344 16.1917
rtibia 56.4749
rfoot -34.3451 -10.5514
rtoes -27.7757
lfemur -30.4247 0.819504 4.80643
ltibia 60.9649
lfoot -27.5698 -7.21245
ltoes -31.8193
960
root 7.84269 15.4978 -23.9055 0.0220352 -26.5704 -6.78015
lowerback 9.50098 -2.56555 2.74875
upperback -0.0241484 -2.86075 5.54882
thorax -5.21075 -1.43283 4.67798
lowerneck 14.8589 10.5405 15.8862
upperneck -28.0457 11.6228 -29.4254
head -7.76438 7.37041 -14.7135
rclavicle -5.46658e-015 2.22639e-014
rhumerus -37.0328 2.99776 -83.8562
rradius 123.824
rwrist -17.0179
rhand -27.0521 4.51994
rfingers 7.12502
rthumb -0.470372 -25.4593
lclavicle -5.46658e-015 2.22639e-014
lhumerus -38.8086 9.6002 72.9858
lradius 129.216
lwrist 58.7957
lhand -26.8736 38.1454
lfingers 7.12502
lthumb -0.298039 68.1249
rfemur -7.4522 3.20787 16.1911
rtibia 56.9833
rfoot -35.9068 -10.6345
rtoes -27.2203
lfemur -31.1039 0.389815 4.96934
ltibia 61.675
lfoot -27.8759 -7.00218
ltoes -32.2413
